HIERARCHY
ROOT Hips
{
	OFFSET -0.242331598161 -23.2236320902 2.53401171434
	CHANNELS 6 Xposition Yposition Zposition Zrotation Yrotation Xrotation
	JOINT LeftHip
	{
		OFFSET 6.68720967556 -9.24270621418 -0.787267827818
		CHANNELS 3 Zrotation Yrotation Xrotation
		JOINT LeftKnee
		{
			OFFSET 3.75355688308 -38.4844112774 -0.177744773917
			CHANNELS 3 Zrotation Yrotation Xrotation
			JOINT LeftFoot
			{
				OFFSET -1.4886241916 -40.8839340047 -4.30064252311
				CHANNELS 3 Zrotation Yrotation Xrotation
				End LeftToe
				{
                                  OFFSET 2.75691473631 -5.67287211062 12.2284175878
				}
			}
		}
	}
	JOINT RightHip
	{
		OFFSET -6.51116741885 -9.13323151385 -0.5788107227
		CHANNELS 3 Zrotation Yrotation Xrotation
		JOINT RightKnee
		{
			OFFSET -4.08835333291 -39.284519027 -0.714599905138
			CHANNELS 3 Zrotation Yrotation Xrotation
			JOINT RightFoot
			{
				OFFSET 1.71492703615 -40.9334982577 -4.13768740982
				CHANNELS 3 Zrotation Yrotation Xrotation
				End RightToe
				{
                                        OFFSET -2.5971569051 -4.94610954348 12.6561339333
				}
			}
		}
	}
	JOINT Waist
	{
		OFFSET -0.266476503963 11.1827889543 -2.65433684848
		CHANNELS 3 Zrotation Yrotation Xrotation
		JOINT Spine
		{
			OFFSET 0.673410647782 14.2691467228 0.415100316871
			CHANNELS 3 Zrotation Yrotation Xrotation
                        JOINT Chest
                        {
                            OFFSET 0.115754103679 5.56511403682 2.31366574527
                            CHANNELS 3 Zrotation Yrotation Xrotation
                            JOINT Neck
                            {
                                OFFSET -0.363440418458 21.8789239772 -3.86417777977
                                CHANNELS 3 Zrotation Yrotation Xrotation
                                End Head
                                {
                                        OFFSET 0.142266031108 27.3070764216 2.07450495877
                                }
                            }
                            JOINT LeftInnerShoulder
                            {
                                OFFSET 7.9837905227 12.3999082761 -3.22330600764
                                CHANNELS 3 Zrotation Yrotation Xrotation
                                JOINT LeftShoulder
                                {
                                        OFFSET 9.33012186646 2.97062074949 -0.889084434338
                                        CHANNELS 3 Zrotation Yrotation Xrotation
                                        JOINT LeftElbow
                                        {
                                                OFFSET 26.5718326866 -1.37540851237 -2.6467790692
                                                CHANNELS 3 Zrotation Yrotation Xrotation
                                                End LeftWrist
                                                {
                                                        OFFSET 25.5222810628 0.872011895254 -0.21787468009
                                                }
                                        }
                                }
                            }
                            JOINT RightInnerShoulder
                            {
                                OFFSET -8.34921095603 12.056907063 -3.64122058586
                                CHANNELS 3 Zrotation Yrotation Xrotation
                                JOINT RightShoulder
                                {
                                        OFFSET -9.88156736978 3.26329056071 -0.814200311722
                                        CHANNELS 3 Zrotation Yrotation Xrotation
                                        JOINT RightElbow
                                        {
                                                OFFSET -25.8763596068 -1.41811594652 -2.08663399534
                                                CHANNELS 3 Zrotation Yrotation Xrotation
                                                End RightWrist
                                                {
                                                        OFFSET -26.1019065683 0.696829200121 -0.725795893458
                                                }
                                        }
                                }
                            }
                        }
                }
            }
}
MOTION
Frames: 16
Frame Time: 0.0333333333333
0.00000 0.00000 0.00000 5.52240 -34.12281 12.23179 7.59600 5.23104 -7.73063 -9.57884 -3.74778 52.73134 8.50596 7.46961 -25.45445 -19.29690 -1.31300 -54.61316 8.24093 4.82727 79.04650 18.73148 -2.12774 -11.23606 2.63052 -7.75827 16.49358 2.59462 -2.94829 0.11893 0.21959 -4.54828 0.24453 -2.74513 20.94013 -16.85267 -0.63777 -35.05857 -8.11358 -64.30008 -44.07903 20.17964 0.71209 -51.96320 23.72997 -4.95338 21.92564 -9.41931 58.28650 27.58872 25.16415 -179.91283 71.57787 -145.68475
1.57037 -0.56694 0.02454 6.83163 -32.21386 11.69652 10.35793 7.52230 -7.46224 -9.66685 -1.99940 50.74005 7.77124 7.30090 -25.29875 -20.40497 -2.74503 -55.35213 8.61513 4.38696 82.05982 20.08682 -2.08070 -9.48050 1.84018 -7.67895 15.90304 2.69325 -3.59158 0.27402 0.19645 -5.23100 0.12418 -2.55319 19.01157 -17.50760 -1.58464 -35.23804 -7.47356 -65.28599 -45.67449 20.53634 -1.37100 -47.87689 22.03511 -4.83510 19.87442 -9.40936 59.42474 25.30662 25.26538 -174.69193 71.09687 -142.13786
0.37653 3.70898 0.04747 8.91850 -29.98347 11.66490 10.88613 7.36164 -8.59767 -9.39097 -0.22069 47.26229 7.89683 7.14579 -23.30413 -21.42912 -4.20280 -53.95993 8.20597 4.64423 80.69548 23.66744 -3.22534 -1.03876 1.30237 -7.12189 13.67478 2.81780 -3.89809 0.44251 -0.18909 -5.67794 0.37205 -4.11563 16.83630 -15.60964 -4.20724 -33.47587 -5.27092 -67.13796 -43.90168 22.71667 -6.91132 -46.28616 25.26053 -2.12219 16.21882 -7.24500 60.43947 18.11305 25.21324 -173.24258 74.92591 -143.12047
-3.86986 9.93006 0.05325 11.16256 -28.12452 10.52937 12.01598 9.53728 -9.03077 -8.65426 2.97262 44.84731 6.10197 7.80781 -22.16347 -21.31677 -3.53696 -53.41701 9.41708 5.67525 79.49382 27.17957 -3.48857 -0.30028 1.00913 -7.65993 13.07358 1.12519 -3.79052 0.24477 -1.57892 -6.46773 0.31658 -4.59551 14.58118 -20.13281 -9.50456 -29.52967 -1.74492 -65.82243 -37.07315 22.14539 -14.58878 -47.93938 36.69087 1.37495 12.22888 -4.70894 59.53396 8.58559 25.73219 158.95346 71.68126 -170.27429
-8.71382 22.35306 0.01720 12.36574 -22.38104 8.33368 10.86140 8.42362 -7.57428 -8.49581 -1.99539 42.10350 5.78207 7.63577 -23.67073 -21.76500 -4.70469 -45.11428 6.75957 6.06129 74.07037 25.93881 -5.93258 -4.03776 2.24283 -6.10233 12.56701 0.48250 -2.42279 -1.52191 -1.01180 -5.12763 2.36170 -7.67797 9.43368 -18.95182 -11.27162 -21.75129 1.13432 -69.66199 -31.69366 24.31721 -19.42755 -41.90180 49.94368 4.38958 6.73070 -1.74366 60.93362 2.43156 22.72840 97.08883 82.14952 126.56119
-15.73980 33.75820 -0.10853 13.13184 -20.67356 2.99600 7.36151 4.05325 -3.24962 -11.05220 -8.74404 46.03994 4.40988 4.26969 -20.04170 -18.70847 -2.10725 -39.47362 5.86080 6.72649 72.44614 20.94957 -9.29128 -6.81051 2.48516 -6.84895 15.08838 -2.74900 0.43830 1.92763 -3.00698 -4.41600 2.37835 -6.19085 8.26033 -20.34619 -20.69678 -13.72054 4.01775 -70.78228 -24.98181 15.46808 5.80199 -34.58039 16.66187 12.25911 9.07138 -0.31197 63.92484 3.39016 21.12900 -13.24687 64.05435 8.55067
-21.31178 36.73349 -0.18847 9.80127 -18.94328 0.64063 5.89534 -0.86323 -8.74123 -10.38878 -8.35915 63.46611 0.28588 6.00322 -7.22143 -14.03395 -0.22199 -34.16957 6.07118 5.10374 69.04001 11.52190 -7.84969 -9.24967 4.55086 -5.05278 16.62393 -2.09188 2.57640 0.35296 -2.28884 -1.86500 3.52305 -8.04777 4.70395 -17.19648 -20.93131 -5.67394 2.49225 -72.28505 -18.31170 14.70296 10.87394 -32.33945 10.40757 15.77255 8.50266 0.58553 60.27221 6.76752 16.46086 -17.74679 37.58413 -5.68291
-24.12101 35.54541 -0.25996 6.92872 -17.38831 -0.82839 7.73876 -2.96957 -13.93256 -10.78617 -6.73395 81.62640 -4.96669 6.13101 5.59702 -11.38175 -1.56030 -29.40069 6.03490 2.62541 58.34497 6.33394 -8.01576 -8.78536 5.65420 -3.89626 18.61362 -2.46052 3.24775 -0.01549 -2.23111 -0.71695 2.96297 -8.02873 2.43434 -18.98938 -23.89991 -0.52664 1.57028 -64.34607 -12.89029 10.03097 13.80493 -29.72073 5.55505 20.17897 7.09035 1.45239 51.00618 7.31491 10.95748 -15.90959 25.11346 -10.36033
-24.65691 34.60626 -0.28376 6.73590 -13.51873 -2.69578 7.86321 -1.98433 -18.41518 -13.93023 -2.56353 96.80675 -1.38510 7.25251 -4.05001 -10.06962 -1.82892 -32.35131 7.51322 1.50954 71.22193 6.26446 -8.79678 -14.13409 4.16364 -3.86941 20.52077 -1.80440 2.91145 -2.40464 -2.17204 -0.89168 4.51531 -8.12049 1.60641 -16.02243 -18.10511 3.78748 1.44471 -59.47199 -9.44582 4.82192 10.85276 -25.18310 9.08817 15.62312 2.62309 -0.78025 51.00682 5.01634 8.77715 -15.26494 26.29591 -8.25578
-25.34769 31.07027 -0.29997 5.95939 -11.72110 -3.20171 8.10386 -1.88052 -22.59275 -14.62127 0.91136 105.83897 0.14386 8.60197 -8.64127 -8.72995 -2.08701 -32.88418 8.01006 0.88475 75.05675 6.82043 -10.68217 -16.64289 3.04006 -2.63065 20.84445 -1.70640 3.24185 -4.38341 -2.42672 -0.35241 5.21768 -8.11635 1.80316 -15.85505 -15.67873 7.38767 0.57519 -49.59902 -4.81417 0.77354 8.66875 -26.71024 9.14232 15.17728 0.30695 -2.44463 44.87676 3.88829 6.63000 -14.36677 26.55090 -7.99225
-27.45982 35.78422 -0.35482 5.55742 -9.67774 -3.37229 10.70945 0.20204 -26.50114 -14.06752 1.21319 104.65483 1.21817 10.96247 -14.02898 -7.82621 -3.07177 -33.05218 8.48150 0.85545 75.44848 7.69935 -10.79320 -17.50642 1.49361 -1.95473 21.50765 -1.81859 2.65789 -6.75046 -1.96327 -0.90795 6.02480 -9.32164 1.98013 -15.35253 -10.46720 11.51187 0.79533 -45.41198 -0.25125 -0.45929 7.40272 -34.60443 15.14595 11.91776 -3.83195 -4.08888 43.55602 1.99885 5.76573 -12.82741 29.65973 -4.72385
-25.24061 40.00115 -0.45405 5.44053 -5.93322 -2.81065 14.12396 2.52964 -30.20543 -11.64684 3.68940 100.03807 -0.60567 13.50393 -15.19482 -8.67765 -4.80047 -32.03867 8.01909 0.49888 74.34180 10.01688 -13.60648 -20.54221 -0.09800 -1.46432 20.09566 -2.27271 1.93026 -8.19691 -2.79551 -0.99273 6.37515 -7.81920 2.80972 -14.74255 -6.42840 14.22729 0.59756 -39.72405 0.94717 -1.33071 4.85763 -39.43636 17.74908 9.80052 -6.83837 -4.20230 40.77678 1.32627 5.84065 -8.31202 30.56559 1.46535
-25.29254 48.16615 -0.49569 5.39306 -2.20966 -3.69127 15.16486 4.76289 -30.01419 -12.70447 2.98698 91.96487 -0.14844 12.80901 -17.79251 -8.44219 -6.61270 -25.89458 8.21981 1.01107 71.46080 11.87715 -12.41571 -20.89054 -0.99123 -0.36916 18.96816 -2.34809 0.39544 -7.19689 -2.67712 -1.38786 7.02724 -8.19335 2.07810 -13.27093 -2.53519 14.86018 0.54814 -39.81665 1.12193 -2.50648 5.33501 -42.65656 19.38379 5.17816 -8.33873 -3.75103 41.88622 -0.10750 4.97066 -7.58901 32.63147 5.84848
-22.03803 53.37289 -0.57169 4.97325 -0.78394 -4.41103 15.96574 5.43032 -25.76637 -12.97976 0.62883 80.61719 -3.56026 12.51971 -13.70557 -8.24714 -6.49293 -22.26011 8.83394 3.90714 67.80917 14.11673 -11.93491 -17.71410 -1.52496 -0.24738 16.51155 -2.99978 0.85860 -4.93533 -3.37663 -0.67218 7.35655 -7.87934 2.11764 -10.59291 0.75660 16.48756 1.23981 -38.71080 2.89167 -3.22366 5.69130 -47.96874 20.01134 2.19388 -9.48394 -3.57532 41.78741 -0.56297 3.73402 -9.32552 35.93490 5.91436
-19.97912 59.20938 -0.59298 4.01184 2.37865 -3.43939 17.11946 5.21327 -24.51119 -13.66401 -0.63380 72.56210 -5.47527 13.24530 -12.60580 -7.59460 -7.13374 -18.75638 8.10882 4.93707 63.28910 14.11734 -11.59114 -15.34262 -1.69665 0.13693 14.99322 -3.42292 1.12385 -4.58972 -3.20597 -0.53729 7.46514 -9.42859 -1.11339 -8.54478 2.46438 17.84601 1.82077 -40.71247 3.44230 -3.27479 8.71809 -54.27008 19.23223 -0.68412 -10.55191 -2.86079 43.26202 -3.01093 2.44232 -9.64183 33.94334 6.99695
-16.10749 59.75064 -0.61059 3.18340 4.57652 -1.13941 16.28822 5.15172 -23.59696 -12.86315 -0.72117 65.75716 -5.83952 14.05924 -12.43419 -8.26852 -7.55638 -16.12577 6.89849 5.76557 61.08465 16.31337 -14.28049 -13.79678 -2.12777 -0.06413 12.55803 -4.33530 0.81365 -5.48233 -3.88124 -0.96112 7.90273 -7.39513 -1.47943 -8.86127 3.37187 21.03030 2.15082 -39.18031 4.25771 -3.55670 7.74403 -61.20103 22.56361 -2.26401 -14.55958 -3.77630 43.98027 -5.11186 2.87345 -8.62167 39.94829 9.34441
